# xmcd
#
# Track frame offsets: 
#        187
#        14807
#        34292
#        59462
#        88954
#        115602
#        138052
#
# Disc length: 2320 seconds
#
# Revision: 3
# Processed by: cddbd v1.5.2PL0 Copyright (c) Steve Scherf et al.
# Submitted via: ExactAudioCopyFreeDBPlugin 1.0
#
DISCID=5d090e07
DTITLE=Thelonious Monk - The Unique
DYEAR=1956
DGENRE=Jazz
TTITLE0=Liza (All The Clouds'll Roll Away)
TTITLE1=Memories Of You
TTITLE2=Honeysuckle Rose
TTITLE3=Darn That Dream
TTITLE4=Tea For Two
TTITLE5=You Are Too Beautiful
TTITLE6=Just You, Just Me
EXTD=YEAR: 1956
EXTT0=
EXTT1=
EXTT2=
EXTT3=
EXTT4=
EXTT5=
EXTT6=
PLAYORDER=
